<?xml version="1.0" encoding="UTF-8" standalone="no"?>
<svg
   version="1.1"
   id="Calque_1"
   x="0px"
   y="0px"
   viewBox="0 0 500 500.00001"
   xml:space="preserve"
   sodipodi:docname="Basic-FOSS.svg"
   width="500"
   height="500"
   inkscape:version="1.4 (86a8ad7, 2024-10-11)"
   inkscape:export-filename="app\Basic-FOSS.png"
   inkscape:export-xdpi="196.608"
   inkscape:export-ydpi="196.608"
   xmlns:inkscape="http://www.inkscape.org/namespaces/inkscape"
   xmlns:sodipodi="http://sodipodi.sourceforge.net/DTD/sodipodi-0.dtd"
   xmlns:xlink="http://www.w3.org/1999/xlink"
   xmlns="http://www.w3.org/2000/svg"
   xmlns:svg="http://www.w3.org/2000/svg"><defs
   id="defs8"><linearGradient
     id="linearGradient11"
     inkscape:collect="always"><stop
       style="stop-color:#ffa32a;stop-opacity:1;"
       offset="0"
       id="stop11" /><stop
       style="stop-color:#fe7000;stop-opacity:1;"
       offset="1"
       id="stop12" /></linearGradient><linearGradient
     inkscape:collect="always"
     xlink:href="#linearGradient11"
     id="linearGradient12"
     x1="-77.614471"
     y1="-224.34615"
     x2="446.83041"
     y2="333.10764"
     gradientUnits="userSpaceOnUse" /></defs><sodipodi:namedview
   id="namedview8"
   pagecolor="#fd7d0b"
   bordercolor="#000000"
   borderopacity="0.25"
   inkscape:showpageshadow="2"
   inkscape:pageopacity="0.0"
   inkscape:pagecheckerboard="0"
   inkscape:deskcolor="#d1d1d1"
   inkscape:zoom="0.45254834"
   inkscape:cx="414.32038"
   inkscape:cy="549.11261"
   inkscape:window-width="2560"
   inkscape:window-height="1346"
   inkscape:window-x="-11"
   inkscape:window-y="-11"
   inkscape:window-maximized="1"
   inkscape:current-layer="g8" />
<style
   type="text/css"
   id="style1">
	.st0{fill:#F37121;}
</style>
<g
   id="g8"
   inkscape:label="g8"
   transform="translate(43.050185,181.42989)">
	
		<rect
   style="display:inline;fill:url(#linearGradient12);fill-opacity:1"
   id="rect10"
   width="500"
   height="500"
   x="-43.050186"
   y="-181.42989" /><rect
   style="display:none;fill:#fd7d0b;fill-opacity:1"
   id="rect10-4"
   width="500"
   height="500"
   x="-43.050186"
   y="-181.42989" /><rect
   x="145"
   y="16"
   transform="matrix(0.9962,-0.08711966,0.08711966,0.9962,-3.7158,13.6281)"
   class="st0"
   width="18.6"
   height="66.699997"
   id="rect1"
   style="fill:#ffffff" />
	<polygon
   class="st0"
   points="233.2,8.9 263.9,6.2 265.1,19.5 252.5,20.6 253.6,33.3 264.8,32.3 265.9,45 254.7,46 257.2,74 239.1,75.6 "
   id="polygon1"
   style="fill:#ffffff" />
	
		<g
   id="g10"
   transform="translate(15.026019,2.032932)"
   style="fill:#ffffff"><path
     class="st0"
     d="m 346.50776,16.396977 -17.2,1.5 -0.4,-4.9 c -0.2,-2.3 -0.5,-3.7000001 -1,-4.3 -0.5,-0.6 -1.3,-0.8 -2.3,-0.8 -1.1,0.1 -1.9,0.6 -2.4,1.4999999 -0.5,0.9000001 -0.7,2.2000001 -0.5,3.9000001 0.2,2.2 0.7,3.9 1.4,4.9 0.7,1.1 2.6,2.3 5.6,3.6 8.6,3.8 14.2,7.1 16.6,9.9 2.4,2.7 3.9,7.4 4.4,13.9 0.4,4.7 0.1,8.3 -0.9,10.6 -1,2.4 -3.1,4.4 -6.4,6.2 -3.3,1.8 -7.2,2.9 -11.7,3.3 -5,0.4 -9.3,-0.1 -12.9,-1.5 -3.7,-1.4 -6.2,-3.5 -7.5,-6.1 -1.3,-2.6 -2.2,-6.4 -2.6,-11.4 l -0.4,-4.4 17.2,-1.5 0.7,8.1 c 0.2,2.5 0.6,4.1 1.1,4.7 0.5,0.7 1.4,0.9 2.7,0.8 1.2,-0.1 2.1,-0.6 2.6,-1.6 0.5,-1 0.7,-2.3 0.6,-4.1 -0.3,-3.9 -1.1,-6.4 -2.4,-7.5 -1.3,-1.1 -4.3,-2.9 -9.2,-5.3 -4.9,-2.4 -8.1,-4.2 -9.7,-5.4 -1.6,-1.2 -3,-2.8 -4.2,-5 -1.2,-2.2 -1.9,-5 -2.2,-8.6 -0.4,-5.1 -0.1,-8.9 1.1,-11.4 1.2,-2.5000006 3.3,-4.50000064 6.3,-6.10000069 3,-1.59999991 6.7,-2.59999991 11.1,-2.99999991 4.8,-0.4 9,-0.1 12.5,1.1 3.5,1.1999999 5.9,2.79999996 7.2,4.9 1.3,2.1000006 2.2,5.8000006 2.6,11.1000006 z"
     id="path6-8"
     style="fill:#ffffff" /><path
     class="st0"
     d="m 394.23282,12.307771 -17.2,1.5 -0.4,-4.8999993 c -0.2,-2.3000004 -0.5,-3.7000004 -1,-4.3000002 -0.5,-0.6 -1.3,-0.8 -2.3,-0.8 -1.1,0.1 -1.9,0.6 -2.4,1.4999998 -0.5,0.9 -0.7,2.2000004 -0.5,3.9000004 0.2,2.1999993 0.7,3.8999993 1.4,4.8999993 0.7,1.1 2.6,2.3 5.6,3.6 8.6,3.8 14.2,7.1 16.6,9.9 2.4,2.7 3.9,7.4 4.4,13.9 0.4,4.7 0.1,8.3 -0.9,10.6 -1,2.4 -3.1,4.4 -6.4,6.2 -3.3,1.8 -7.2,2.9 -11.7,3.3 -5,0.4 -9.3,-0.1 -12.9,-1.5 -3.7,-1.4 -6.2,-3.5 -7.5,-6.1 -1.3,-2.6 -2.2,-6.4 -2.6,-11.4 l -0.4,-4.4 17.2,-1.5 0.7,8.1 c 0.2,2.5 0.6,4.1 1.1,4.7 0.5,0.7 1.4,0.9 2.7,0.8 1.2,-0.1 2.1,-0.6 2.6,-1.6 0.5,-1 0.7,-2.3 0.6,-4.1 -0.3,-3.9 -1.1,-6.4 -2.4,-7.5 -1.3,-1.1 -4.3,-2.9 -9.2,-5.3 -4.9,-2.4 -8.1,-4.2 -9.7,-5.4 -1.6,-1.2 -3,-2.8 -4.2,-5 -1.2,-2.2 -1.9,-5 -2.2,-8.6 -0.4,-5.0999993 -0.1,-8.8999995 1.1,-11.3999995 1.2,-2.5000011 3.3,-4.500001 6.3,-6.100001 3,-1.6 6.7,-2.6 11.1,-3 4.8,-0.4 9,-0.1 12.5,1.1 3.5,1.2 5.9,2.8 7.2,4.8999999 1.3,2.10000108 2.2,5.8000011 2.6,11.1000011 z"
     id="path6-8-8"
     style="fill:#ffffff" /></g>
	
	
		<rect
   x="219.10001"
   y="36.700001"
   transform="matrix(0.9962,-0.08710875,0.08710875,0.9962,-2.8151,19.7811)"
   class="st0"
   width="12.2"
   height="10.8"
   id="rect3"
   style="fill:#ffffff" />
	<g
   id="g7"
   style="fill:#ffffff">
		<path
   class="st0"
   d="m -0.1,29.4 18.5,-1.6 c 5.8,-0.5 11.3,-0.6 14.3,0 3.1,0.6 5.7,2.1 7.7,4.5 2.1,2.4 3.4,6.5 3.9,12.3 0.3,3.9 -0.1,6.7 -1.2,8.3 -1.2,1.6 -3.6,3 -7.4,4.2 4.4,0.5 7.4,1.8 9.1,3.7 1.7,2 2.8,5.1 3.1,9.4 l 0.5,6.2 c 0.4,4.5 0.1,7.9 -0.8,10.1 -0.9,2.3 -2.5,3.9 -4.9,4.9 -2.3,1 -7.2,1.8 -14.7,2.5 l -22.4,2 z m 19.5,9.8 1.3,14.8 c 0.8,-0.1 2.4,-0.2 2.8,-0.3 1.8,-0.2 2.9,-0.7 3.4,-1.6 0.4,-0.9 0.5,-3.3 0.1,-7.2 -0.2,-2.1 -0.5,-3.5 -1,-4.3 -0.5,-0.8 -1.1,-1.3 -1.7,-1.4 -0.7,-0.3 -3,-0.2 -4.9,0 m 2.2,25.1 1.6,18.6 c 2.6,-0.3 5.2,-0.9 5.9,-1.7 0.7,-0.7 0.9,-2.5 0.6,-5.1 L 29.2,69.9 C 29,67.1 28.5,65.4 27.8,64.8 27.1,64.2 24.4,64.1 21.6,64.3"
   id="path3"
   style="fill:#ffffff" />
		<path
   class="st0"
   d="m 214.1,37.7 -18.7,1.6 -0.7,-7.5 c -0.3,-3.4 -0.7,-5.4 -1.1,-6.2 -0.5,-0.8 -1.4,-1.1 -2.8,-1 -1.5,0.1 -2.5,0.7 -2.8,1.8 -0.3,1.1 -0.3,3.3 0,6.6 l 2.4,27 c 0.3,3.2 0.7,5.3 1.2,6.3 0.5,0.9 1.5,1.4 2.9,1.2 1.4,-0.1 2.3,-0.7 2.6,-1.7 0.3,-1 0.4,-3.4 0,-7 l -0.8,-8.6 18.7,-1.6 0.4,4.8 c 0.6,6.9 0.5,11.8 -0.3,14.8 -0.8,3 -2.9,5.7 -6.3,8.2 -3.4,2.5 -7.8,4 -13,4.4 -5.5,0.5 -10.1,0 -13.8,-1.6 -3.7,-1.5 -6.3,-3.9 -7.7,-7 -1.4,-3.1 -2.4,-8 -3,-14.5 l -1.7,-19.4 c -0.4,-4.8 -0.6,-8.4 -0.4,-10.8 0.1,-2.4 1,-4.8 2.6,-7.2 1.6,-2.4 3.9,-4.3 6.9,-5.9 3,-1.5 6.6,-2.5 10.6,-2.9 5.5,-0.5 10.2,0.1 13.9,1.8 3.8,1.7 6.3,3.9 7.7,6.7 1.4,2.8 2.3,7.4 2.9,13.6 z"
   id="path4"
   style="fill:#ffffff" />
		<path
   class="st0"
   d="m 82.7,22.3 5.7,-1 -17,0.7 7,-9.6 -8.5,8.2 -2,-12 0.1,12.2 -9.5,-6.4 8.2,7.9 -16.4,2.2 h 5.6 l -3.6,67.2 19.2,-1.7 0.1,-12 6.6,-0.6 2,11.9 18.9,-1.7 z m 7.4,63.8 c -1.3,0.2 -3.3,-0.7 -4.4,-0.9 -0.7,-0.1 -1.5,0.1 -1.9,-0.4 -0.1,-0.4 -0.1,-0.8 -0.2,-1.1 -0.4,-0.3 -0.8,-0.6 -1.2,-1 -0.5,-0.8 -0.2,-1.6 -0.7,-2.4 -0.9,-1.6 -2.3,-3.3 -3.3,-4.9 -0.8,-1.3 -0.9,-2.6 -1.8,-3.7 -0.5,-0.6 -1.3,-1 -1.8,-1.6 -1,-1.3 -2.3,-4.6 -4.3,-4.7 -1.4,2.7 -2.8,5.6 -3.6,8.8 0,0.8 0,1.5 0,2.3 -0.2,0.6 -0.7,1.3 -0.9,2.1 -0.2,0.7 -0.4,3 -0.2,3.7 0.1,0.3 -0.2,0.6 -0.1,1.3 0.1,0.6 0.3,2 -0.3,2.3 -0.4,0.1 -0.9,0.2 -1.4,0.5 -0.2,0.1 -1.7,1.8 -2,2.2 -1.5,0.1 -2.7,-0.3 -2.7,-0.6 0,-0.3 -0.4,-1.1 0.3,-1.5 0.3,-0.2 1,-1.1 0.9,-1.5 -0.1,-0.2 0.5,-0.9 0.6,-1.4 0.2,-0.9 0.1,-1.3 0.3,-2.2 0.1,-1.6 0.2,-3.2 0.3,-4.9 0.4,-1.7 1.1,-3.2 1.4,-4.9 -0.1,-0.9 0.2,-8.5 0.6,-10.4 0.1,-0.5 0.4,-1.3 0.4,-1.8 0.1,-0.5 0.6,-1.3 0.8,-1.7 0.1,-0.5 -0.3,-0.6 -0.1,-1.1 0.3,-0.7 0.9,-1.4 1.2,-2.1 0.4,-1.1 0.3,-2 0.8,-3.1 0.4,-0.9 1.2,-2 1.5,-2.9 0.2,-0.8 1.2,-3 1.4,-3.5 0.3,-1.1 -0.3,-2.4 -0.1,-3.7 0.4,-2.3 0.2,-5.2 -0.4,-7.2 -0.5,-1.4 0,-3.8 0.3,-4.7 0,0 0,0 0,0 0,0 0,0 0,-0.1 0,-0.1 0,-0.1 0,-0.1 0,-0.1 -0.1,-0.2 -0.1,-0.5 0,0 0,0 0,0 0,0 0,-0.1 0,-0.1 0,0 0,0 0,0 -0.1,-0.1 -0.2,-0.2 -0.3,-0.3 0,-0.1 -0.1,-0.2 -0.1,-0.2 0,0 0,-0.1 0,-0.1 0,0 0,-0.1 -0.1,-0.1 0,0 -0.1,-0.1 -0.1,-0.1 0,-0.1 0,-0.1 0,-0.2 0,-0.1 0,-0.1 0,-0.2 0,-0.1 0,-0.2 0,-0.2 0,-0.1 0,-0.2 0,-0.2 0,-0.1 0.1,-0.1 0.2,-0.1 0,0 0.1,0 0.1,0 0.1,0 0.1,0 0.2,-0.1 0,0 0,0 0,-0.1 0,-0.1 0,-0.1 0.1,-0.2 0,0 0,-0.1 0.1,-0.1 0,-0.1 0.1,-0.1 0.1,-0.1 0,0 0.1,0 0.2,0 0.1,0 0.1,0 0.2,0 0,0 0.1,0 0.1,0 0.1,0 0.1,-0.1 0.2,-0.1 0,0 0,0 0,-0.1 0,0 0,-0.1 0.1,-0.2 0,0 0,-0.1 0.1,-0.1 0.1,0 0.1,-0.1 0.2,0 0.1,0 0.2,0.1 0.2,0.1 0.1,0 0.2,0.1 0.2,0.1 0.1,0 0.1,0 0.2,0 0.1,0 0.1,-0.1 0.2,-0.1 0.1,0 0.2,0 0.2,0.1 0,0.1 0.1,0.1 0.1,0.2 0,0.1 0,0.2 0,0.3 0,0.1 0,0.2 0,0.2 0,0.1 0,0.1 0,0.2 0,0.1 0,0.3 -0.1,0.4 0,0 0,0.1 0,0.1 0,0 0,0.1 0,0.1 0.1,0.1 0.1,0.1 0.2,0.2 0,0 0,0 0,0 0.1,0 0.1,0.1 0.1,0.2 0,0.1 0,0.2 0,0.3 0,0 0,0 0,0.1 0,0.1 -0.1,0.1 -0.1,0.2 0,0 -0.1,0 -0.1,0.1 -0.2,0.1 -0.3,0.2 -0.5,0.3 0,0 0,0 0,0 0,0 0,0.1 0,0.2 0,0 0,0 0,0 0,0.2 0,0.4 0,0.6 0,0.1 0,0.1 0,0.2 0,0.1 0,0.2 0,0.3 0.1,1.1 0.4,2.3 0.7,3.2 0.2,0.8 -0.3,2.4 0.1,3.4 0.3,1 0.6,2.1 0.9,3.1 0,0.7 0.1,1.4 0.1,2.2 0.1,0.2 0.5,0.8 0.6,1 0.4,0.9 0.1,1.2 1.3,1.2 0,-0.1 -0.7,-2 -0.4,-2.9 0.7,-1.7 -0.3,-2.3 1.4,-3 1,-0.9 3.3,-0.2 3.8,0.7 0.5,0.5 0.5,1.2 0.4,1.7 0.1,0.6 -0.2,2.2 -0.4,2.4 -0.3,0.5 -0.6,1 -0.9,1.5 -0.3,0.4 -0.9,0.7 -1.1,1.2 -0.9,2.2 1.5,3.5 1,5.4 -0.1,0.3 -0.6,1.4 -0.8,1.7 -0.4,0.3 -0.7,0.6 -1.1,1 -0.5,1 -0.3,2 -0.7,3.1 -0.2,0.5 -0.8,1.5 -0.4,2.3 0.1,0.4 0.6,0.7 0.8,1 0.1,0.5 0.2,1 0.2,1.5 0.5,1.1 1.5,2.2 2.1,3.3 0.9,2.1 1.1,4.4 2.2,6.2 0.6,1.1 1.9,1.9 2.6,2.9 0.8,1.1 0.8,2.4 1.6,3.5 1.2,1.6 1.7,4.1 3.6,5.1 4,2 1.5,3.1 1.2,3.2"
   id="path5"
   style="fill:#ffffff" />
		<path
   class="st0"
   d="m 137.9,37.6 -17.2,1.5 -0.4,-4.9 c -0.2,-2.3 -0.5,-3.7 -1,-4.3 -0.5,-0.6 -1.3,-0.8 -2.3,-0.8 -1.1,0.1 -1.9,0.6 -2.4,1.5 -0.5,0.9 -0.7,2.2 -0.5,3.9 0.2,2.2 0.7,3.9 1.4,4.9 0.7,1.1 2.6,2.3 5.6,3.6 8.6,3.8 14.2,7.1 16.6,9.9 2.4,2.7 3.9,7.4 4.4,13.9 0.4,4.7 0.1,8.3 -0.9,10.6 -1,2.4 -3.1,4.4 -6.4,6.2 -3.3,1.8 -7.2,2.9 -11.7,3.3 -5,0.4 -9.3,-0.1 -12.9,-1.5 -3.7,-1.4 -6.2,-3.5 -7.5,-6.1 -1.3,-2.6 -2.2,-6.4 -2.6,-11.4 l -0.4,-4.4 17.2,-1.5 0.7,8.1 c 0.2,2.5 0.6,4.1 1.1,4.7 0.5,0.7 1.4,0.9 2.7,0.8 1.2,-0.1 2.1,-0.6 2.6,-1.6 0.5,-1 0.7,-2.3 0.6,-4.1 -0.3,-3.9 -1.1,-6.4 -2.4,-7.5 -1.3,-1.1 -4.3,-2.9 -9.2,-5.3 -4.9,-2.4 -8.1,-4.2 -9.7,-5.4 -1.6,-1.2 -3,-2.8 -4.2,-5 -1.2,-2.2 -1.9,-5 -2.2,-8.6 -0.4,-5.1 -0.1,-8.9 1.1,-11.4 1.2,-2.5 3.3,-4.5 6.3,-6.1 3,-1.6 6.7,-2.6 11.1,-3 4.8,-0.4 9,-0.1 12.5,1.1 3.5,1.2 5.9,2.8 7.2,4.9 1.3,2.1 2.2,5.8 2.6,11.1 z"
   id="path6"
   style="fill:#ffffff" />
		<path
   class="st0"
   d="m 413.99963,90.729437 -11.15419,0.885257 2.47871,27.796946 -11.68534,1.0623 -2.30166,-27.619894 -10.97714,0.885257 -0.7082,-9.029588 33.63962,-3.009855 z m -35.23307,31.160903 -11.50828,1.0623 -3.18691,-36.826518 11.50828,-1.0623 z m -47.62661,-20.18376 v -0.53115 c -0.17706,-1.239363 -0.53115,-2.124609 -1.23936,-2.655758 -0.70819,-0.354107 -1.59346,-0.53115 -2.83281,-0.53115 l -7.43613,0.708192 0.70821,7.436126 6.90497,-0.53115 c 1.4164,-0.17705 2.47872,-0.35409 3.00987,-0.88525 0.53115,-0.53115 0.88525,-1.59345 0.88525,-3.00986 m 11.50828,-1.947555 0.17705,1.770505 c 0.17706,2.12461 -0.17705,3.89511 -1.0623,5.31152 -0.88524,1.4164 -2.30166,2.4787 -4.07215,3.54101 1.23934,0.53115 2.30164,1.23935 3.00985,2.1246 0.70821,0.88526 1.23936,2.12461 1.59345,3.71807 l 0.88525,2.83281 c 0.35412,1.0623 0.70821,2.30165 1.41642,3.36395 0.53115,1.06231 1.06229,1.94757 1.59344,2.47872 l -12.03944,1.0623 c -0.53115,-0.53115 -0.88524,-1.0623 -1.23934,-1.94756 -0.53115,-1.06231 -1.06232,-2.12461 -1.23936,-3.18691 l -0.88525,-3.18692 c -0.35411,-1.06229 -0.7082,-1.77049 -1.41641,-2.30165 -0.70821,-0.53115 -1.4164,-0.7082 -2.4787,-0.88524 l -5.66563,0.53115 1.0623,11.86239 -11.50828,1.0623 -3.71806,-36.826526 19.82967,-1.770503 c 4.6033,-0.354107 8.32137,0.177043 10.97713,1.947556 2.83281,1.770503 4.42626,4.603316 4.78036,8.498428 m -57.54145,22.131315 c 1.06231,-0.17704 1.94757,-0.35409 2.83282,-0.70819 0.88526,-0.35411 1.59346,-0.88527 2.12461,-1.41642 0.53115,-0.70819 1.06229,-1.41639 1.41639,-2.30165 0.35412,-0.88525 0.35412,-1.7705 0.35412,-3.00985 l -0.53116,-7.25908 c -0.17706,-2.12461 -1.0623,-3.89512 -2.4787,-4.95742 -0.70821,-0.53115 -1.41641,-0.88526 -2.30166,-1.0623 -0.88527,-0.17705 -1.77051,-0.17705 -2.83281,-0.17705 -1.06231,0 -1.94756,0.35409 -2.83281,0.7082 -0.88526,0.3541 -1.59346,0.88526 -2.12461,1.41641 -0.53115,0.7082 -1.0623,1.4164 -1.4164,2.30165 -0.35412,0.88526 -0.35412,1.94755 -0.35412,3.00987 l 0.70822,7.08202 c 0.17705,2.12459 1.0623,3.71805 2.47871,4.78035 0.7082,0.53116 1.4164,0.88527 2.30164,1.06231 0.53116,0.53115 1.59346,0.53115 2.65576,0.53115 m -19.47557,-5.84266 -0.53115,-5.66562 c -0.17704,-2.47872 0,-4.78037 0.53115,-6.90498 0.53117,-2.12461 1.59347,-3.895109 3.00988,-5.488558 3.00986,-3.18692 7.61317,-5.134476 13.80993,-5.665625 3.18691,-0.354096 6.01973,-0.177054 8.32139,0.354096 2.4787,0.53116 4.42627,1.59346 6.19676,2.832812 1.59346,1.239353 3.00987,2.832813 3.89513,4.780365 0.88524,1.94756 1.59344,4.24922 1.7705,6.72793 l 0.53116,5.66561 c 0.17705,2.47871 0,4.78037 -0.53116,6.90498 -0.53115,2.12461 -1.59345,3.89511 -3.00987,5.48856 -1.41639,1.59347 -3.36395,2.83282 -5.66561,3.89511 -2.30165,1.06231 -5.13446,1.59346 -8.14433,1.94757 -3.18691,0.3541 -5.84267,0.17704 -8.32137,-0.35411 -2.47871,-0.53115 -4.60332,-1.59346 -6.19678,-2.8328 -1.59345,-1.23935 -3.00986,-2.83281 -3.89511,-4.78038 -1.0623,-2.1246 -1.59345,-4.24921 -1.77052,-6.90496 m -4.07215,-11.86239 -17.70506,1.59346 0.53115,6.01972 15.0493,-1.23937 0.88526,9.02959 -15.04931,1.23935 1.06231,12.74765 -11.50829,1.0623 -3.18691,-36.826521 29.21334,-2.478717 z m -68.16448,25.67234 c 1.06231,0 1.94755,-0.3541 2.8328,-0.70821 0.88527,-0.35411 1.59346,-0.88525 2.12461,-1.4164 0.53115,-0.7082 1.0623,-1.41641 1.41641,-2.30166 0.3541,-0.88526 0.3541,-1.7705 0.3541,-3.00987 l -0.53115,-7.25907 c -0.17706,-2.1246 -1.06231,-3.89511 -2.4787,-4.95741 -0.70822,-0.53115 -1.41642,-0.88526 -2.30167,-1.0623 -0.88524,-0.17706 -1.77051,-0.17706 -2.83281,-0.17706 -1.0623,0.17706 -1.94756,0.3541 -2.8328,0.70821 -0.88526,0.35409 -1.59347,0.88524 -2.12462,1.4164 -0.53115,0.70821 -1.0623,1.4164 -1.4164,2.30166 -0.35409,0.88525 -0.35409,1.94755 -0.35409,3.00986 l 0.70819,7.08202 c 0.17705,2.1246 1.0623,3.71807 2.47872,4.78037 0.7082,0.53114 1.41639,0.88525 2.30165,1.06231 0.7082,0.53115 1.59346,0.70819 2.65576,0.53115 m -19.47556,-5.66562 -0.53116,-5.66562 c -0.17706,-2.47871 0,-4.78037 0.53116,-6.90498 0.53115,-2.12461 1.59345,-3.89511 3.00985,-5.48857 3.00987,-3.18691 7.61317,-5.13446 13.80995,-5.66561 3.18692,-0.35411 6.01972,-0.17706 8.32137,0.35409 2.47871,0.53115 4.42627,1.41641 6.19679,2.83282 1.59345,1.23935 3.00985,2.83281 3.8951,4.78037 0.88525,1.94755 1.59345,4.2492 1.7705,6.72791 l 0.53116,5.66562 c 0.17705,2.47871 0,4.78036 -0.53116,6.90498 -0.53115,2.12461 -1.59345,3.8951 -3.00986,5.48856 -1.4164,1.59345 -3.36396,2.83282 -5.66562,3.89512 -2.30164,1.06231 -5.13445,1.59346 -8.14432,1.94755 -3.18691,0.35411 -5.84267,0.17706 -8.32137,-0.35409 -2.47872,-0.53115 -4.60333,-1.59346 -6.19678,-2.83282 -1.59346,-1.23935 -3.00985,-2.8328 -3.89512,-4.78037 -0.88525,-2.12461 -1.59344,-4.42625 -1.77049,-6.90496 m -20.71494,4.42626 -0.70819,-8.14433 16.99685,-1.4164 0.53115,6.72792 v 0.17705 0.3541 c 0,0.17706 0,0.17706 0,0.35411 0,1.94755 -0.17705,3.8951 -0.88524,5.66562 -0.53115,1.7705 -1.41642,3.36396 -2.65576,4.95741 -1.23935,1.59346 -3.00987,2.8328 -4.95742,3.71807 -1.94755,0.88524 -4.42627,1.59345 -7.08202,1.7705 -3.18691,0.3541 -6.01973,0.17704 -8.32139,-0.35411 -2.30165,-0.53115 -4.42626,-1.59345 -6.19676,-2.83281 -1.59346,-1.23934 -3.00986,-2.8328 -3.89513,-4.78037 -0.88524,-1.94754 -1.59345,-4.24921 -1.7705,-6.72791 l -0.53114,-5.66563 c -0.17705,-2.4787 0,-4.78037 0.53114,-6.90496 0.53115,-2.12461 1.59345,-3.89512 3.00987,-5.48858 3.00985,-3.1869 7.61318,-5.13446 13.80994,-5.66561 2.47872,-0.17705 4.78036,-0.17705 6.72793,0.3541 2.12461,0.53116 3.8951,1.23935 5.31152,2.30166 1.41639,1.0623 2.65576,2.30165 3.71805,3.89511 1.06231,1.59345 1.77052,3.36396 2.12461,5.31152 l -10.97714,0.88524 c -0.53115,-1.41639 -1.4164,-2.4787 -2.65576,-3.1869 -1.23934,-0.70821 -2.65576,-0.88525 -4.07215,-0.88525 -1.06231,0.17704 -1.94756,0.3541 -2.83282,0.7082 -0.88525,0.3541 -1.4164,0.88525 -1.94755,1.4164 -1.23935,1.41641 -1.59345,3.00987 -1.41641,5.31152 l 0.7082,7.25908 c 0.17706,2.12461 1.0623,3.8951 2.47872,4.95741 0.70819,0.53115 1.4164,0.88526 2.30165,1.0623 0.88526,0.17706 1.77051,0.17706 2.83281,0.17706 2.30166,-0.17706 3.89512,-0.88525 5.13446,-1.94756 0.88527,-0.88526 1.41642,-2.1246 1.41642,-3.71806 z"
   id="path7"
   style="stroke-width:1.77051;fill:#ffffff" />
	</g>
<path
   style="font-stretch:condensed;font-size:88.1463px;font-family:Impact;-inkscape-font-specification:'Impact Condensed';text-align:center;text-anchor:middle;fill:#ffffff;stroke-width:1.37728"
   d="m 303.21159,43.012019 q 0.91529,10.461843 0.7834,14.880251 -0.0928,4.37178 -2.39313,8.202221 -2.25749,3.826689 -6.50495,6.1425 -4.24747,2.315811 -10.12154,2.829724 -5.57393,0.487655 -10.19062,-0.92303 -4.57758,-1.457313 -7.59764,-4.865482 -3.02007,-3.40817 -3.9097,-7.650796 -0.88964,-4.242626 -1.82744,-14.961728 l -1.03908,-11.876764 q -0.91529,-10.461843 -0.82252,-14.833623 0.1319,-4.418408 2.38938,-8.245098 2.30036,-3.8304404 6.54783,-6.1462514 4.24747,-2.3158109 10.12153,-2.8297241 5.57394,-0.4876549 10.15151,0.9696579 4.61669,1.4106852 7.63676,4.8188546 3.02006,3.40817 3.9097,7.650796 0.88964,4.242626 1.82743,14.961728 z m -20.0466,-21.230996 q -0.42388,-4.845034 -1.09756,-6.125437 -0.63456,-1.327031 -2.30674,-1.180735 -1.41492,0.12379 -2.08916,1.306098 -0.63512,1.13568 -0.16622,6.495231 l 2.8359,32.414563 q 0.52892,6.045573 1.12435,7.419231 0.6383,1.369907 2.43911,1.212357 1.84369,-0.161301 2.21566,-1.835619 0.37197,-1.674317 -0.16445,-7.805643 z"
   id="text9"
   transform="scale(1.0424532,0.95927567)"
   aria-label="O" /></g>
</svg>
